<?xml version="1.0" standalone="no"?>
<!DOCTYPE svg PUBLIC "-//W3C//DTD SVG 1.1//EN" "http://www.w3.org/Graphics/SVG/1.1/DTD/svg11.dtd">
<svg xmlns="http://www.w3.org/2000/svg">
<defs >
<font id="PublicSans" horiz-adv-x="1041" ><font-face
    font-family="Public Sans Thin"
    units-per-em="2000"
    panose-1="0 0 0 0 0 0 0 0 0 0"
    ascent="1900"
    descent="-450"
    alphabetic="0" />
<glyph unicode=" " horiz-adv-x="424" />
<glyph unicode="!" horiz-adv-x="560" d="M165 446L232 1446H570L346 446H165ZM29 0L76 312H390L343 0H29Z" />
<glyph unicode="&quot;" horiz-adv-x="954" d="M671 886L680 1446H973L815 886H671ZM234 886L243 1446H536L378 886H234Z" />
<glyph unicode="#" horiz-adv-x="1195" d="M808 -5L654 16L868 1449L1020 1434L808 -5ZM67 450V602H1110V450H67ZM383 -5L230 16L444 1449L595 1434L383 -5ZM131 860V1012H1174V860H131Z" />
<glyph unicode="$" horiz-adv-x="1331" d="M612 -20Q359 -20 216 84T83 407L384 413Q393 314 461 263T646 211Q715 211 771 234T864 298T907 391Q920 471 877 510T734 574L512 625Q356 658 275 756T216 1021Q235 1157 322 1256T543 1410T832 1464Q991 1464 1099
1406T1255 1249T1283 1031L991 1026Q992 1090 975 1136T917 1207T801 1232Q724 1232 666 1210T573 1147T530 1055Q521 992 556 956T700 888L918 831Q1102 784 1170 670T1214 393Q1196 268 1116 175T906 31T612 -20ZM459 -191L497 69H746L707 -191H459ZM698 1393L737
1653H986L947 1393H698Z" />
<glyph unicode="%" horiz-adv-x="1745" d="M1227 -20Q1131 -20 1063 34T963 180T948 388Q964 503 1022 597T1164 746T1343 802Q1438 802 1506 747T1605 597T1620 388Q1604 273 1548 181T1408 34T1227 -20ZM449 648Q352 648 283 701T183 847T168 1054Q184 1170
242 1264T384 1413T564 1468Q658 1468 726 1413T825 1264T840 1054Q824 939 768 847T628 702T449 648ZM467 796Q539 796 582 864T641 1054Q659 1179 635 1250T541 1321Q495 1321 460 1289T401 1196T366 1054Q349 934 373 865T467 796ZM1246 131Q1293 131 1328 162T1386
250T1420 386Q1432 469 1425 528T1392 620T1320 653Q1274 653 1240 621T1182 528T1146 386Q1135 308 1142 251T1175 162T1246 131ZM382 -8L228 -5L1507 1462H1658L382 -8Z" />
<glyph unicode="&amp;" horiz-adv-x="1530" d="M471 -10Q316 -10 223 37T92 169T72 363Q86 462 137 538T276 679T493 808Q451 865 420 914T376 1014T372 1130Q386 1226 450 1302T615 1423T840 1468Q959 1468 1051 1429T1190 1319T1224 1154Q1214 1090 1170 1026T1048
896T857 768L1033 502Q1051 533 1077 582T1130 692T1174 821H1470Q1432 732 1376 648T1258 486T1145 334L1374 0H1044L946 142Q819 57 697 24T471 -10ZM575 213Q631 213 703 238T832 313L608 642Q526 597 463 531T397 379Q396 299 451 256T575 213ZM759 915Q835
960 879 997T944 1070T969 1141Q977 1194 959 1227T905 1276T825 1290Q757 1288 712 1248T659 1150Q655 1117 663 1083T688 1018T726 958L759 915Z" />
<glyph unicode="&apos;" horiz-adv-x="517" d="M234 886L243 1446H536L378 886H234Z" />
<glyph unicode="(" horiz-adv-x="663" d="M271 -286Q211 -146 170 -10T117 274T130 592Q168 841 277 1068T538 1482H742Q614 1287 518 1058T387 590Q354 363 378 152T473 -286H271Z" />
<glyph unicode=")" horiz-adv-x="669" d="M382 1480Q442 1340 483 1204T536 920T523 602Q485 353 376 126T115 -288H-89Q39 -93 135 136T266 604Q299 831 275 1042T180 1480H382Z" />
<glyph unicode="*" horiz-adv-x="946" d="M381 649L225 758L431 1005L137 1087L199 1257L477 1136L454 1446H645L618 1135L901 1259L955 1089L669 1006L871 764L714 654L548 928L381 649Z" />
<glyph unicode="+" horiz-adv-x="1155" d="M433 256L573 1201H783L643 256H433ZM131 621L163 834H1083L1051 621H131Z" />
<glyph unicode="," horiz-adv-x="552" d="M-18 -280L135 -8L36 1L79 284H368L331 35L88 -280H-18Z" />
<glyph unicode="-" horiz-adv-x="772" d="M105 408L135 621H666L636 409L105 408Z" />
<glyph unicode="." horiz-adv-x="537" d="M26 0L75 318H389L341 0H26Z" />
<glyph unicode="/" horiz-adv-x="756" d="M-55 -37L656 1446H857L146 -37H-55Z" />
<glyph unicode="0" horiz-adv-x="1267" d="M559 -22Q302 -22 185 169T117 719Q150 959 240 1126T465 1379T769 1466Q1023 1466 1141 1274T1209 720Q1158 361 987 170T559 -22ZM593 217Q718 217 792 332T904 719Q943 996 901 1116T735 1236Q611 1236 535 1115T418
719Q381 449 424 333T593 217Z" />
<glyph unicode="1" horiz-adv-x="847" d="M255 0L417 1083H166L190 1248Q311 1248 389 1271T511 1339T572 1446H762L547 0H255Z" />
<glyph unicode="2" horiz-adv-x="1248" d="M39 0L59 144L70 218Q88 346 154 435T312 586T506 697T698 791T850 893T923 1027Q935 1114 885 1169T733 1224Q662 1224 602 1196T496 1112T427 971H150Q171 1109 248 1221T457 1400T774 1466Q934 1466 1041 1411T1197
1258T1227 1029Q1209 902 1145 815T991 670T803 568T616 482T469 388T399 259L397 246H1116L1081 0H39Z" />
<glyph unicode="3" horiz-adv-x="1308" d="M553 -22Q382 -21 270 35T108 197T78 447H356Q360 324 425 269T589 214Q676 214 741 240T847 312T896 419Q905 481 877 526T792 596T657 624L523 629L555 861L679 868Q755 871 814 897T911 966T955 1065Q963 1118 937
1157T857 1218T732 1240Q665 1240 606 1217T503 1142T441 1001H164Q186 1157 273 1260T489 1414T770 1466Q928 1466 1046 1424T1225 1296T1265 1078Q1250 971 1178 890T963 760Q1038 738 1097 693T1187 578T1205 410Q1190 304 1132 223T985 87T786 5T553 -22Z"
/>
<glyph unicode="4" horiz-adv-x="1283" d="M656 0L704 320H59L95 560L864 1446H1147L1018 565H1233L1196 320H979L932 0H656ZM362 565H741L819 1095L362 565Z" />
<glyph unicode="5" horiz-adv-x="1326" d="M611 -22Q470 -22 358 22T168 142T60 318L305 453Q334 385 373 331T471 245T614 213Q739 213 825 282T927 462Q937 532 911 587T828 675T692 707Q649 707 611 700T530 672T435 613Q419 607 414 607T395 614L199 712L367
1446H1277L1232 1207H562L487 858Q571 903 644 923T802 943Q944 943 1048 889T1202 729T1232 473Q1211 320 1128 209T912 38T611 -22Z" />
<glyph unicode="6" horiz-adv-x="1298" d="M595 -22Q414 -22 296 67T130 317T113 695Q146 933 242 1106T484 1372T816 1466Q950 1466 1055 1417T1219 1274T1266 1049H1001Q988 1140 935 1187T789 1235Q689 1235 614 1176T496 1011T445 764Q485 812 539 845T656
897T786 915Q929 915 1029 861T1176 706T1204 472Q1185 330 1101 219T886 43T595 -22ZM617 202Q684 202 743 234T844 325T895 458Q906 538 882 591T807 670T687 697Q628 697 569 670T468 600T420 513Q406 416 426 347T496 240T617 202Z" />
<glyph unicode="7" horiz-adv-x="1226" d="M260 0Q280 88 331 222T465 520T665 860T933 1207H183L219 1446H1271L1233 1207Q1155 1121 1071 1004T905 754T755 485T638 224T571 0H260Z" />
<glyph unicode="8" horiz-adv-x="1318" d="M583 -21Q412 -21 291 30T112 177T72 401Q84 484 134 558T253 684T389 750Q308 792 259 870T225 1059Q244 1191 323 1281T525 1419T792 1466Q937 1466 1046 1419T1209 1282T1244 1059Q1229 948 1158 870T995 750Q1058
736 1112 685T1196 559T1214 401Q1196 272 1112 177T891 31T583 -21ZM614 199Q737 199 815 256T906 409Q915 473 891 521T811 598T674 626Q593 626 530 598T429 522T381 409Q368 314 430 257T614 199ZM707 863Q802 863 872 916T956 1065Q969 1159 914 1214T764
1269Q669 1269 600 1214T516 1065Q503 970 558 917T707 863Z" />
<glyph unicode="9" horiz-adv-x="1295" d="M533 -22Q400 -22 293 30T126 176T77 398H352Q358 314 410 262T554 209Q654 209 737 258T873 414T940 694Q905 641 852 602T731 541T585 519Q441 519 338 574T186 732T157 976Q177 1118 259 1229T470 1403T759 1466Q940
1466 1058 1379T1223 1131T1240 753Q1204 494 1108 322T866 64T533 -22ZM667 751Q726 751 785 778T887 848T935 935Q949 1032 929 1101T859 1208T737 1245Q671 1245 614 1213T519 1123T470 989Q454 876 509 814T667 751Z" />
<glyph unicode=":" horiz-adv-x="543" d="M130 696L176 1009H492L445 696H130ZM27 6L74 318H390L343 6H27Z" />
<glyph unicode=";" horiz-adv-x="560" d="M-16 -309L156 0H46L92 314H407L366 36L100 -309H-16ZM144 687L191 1005H506L459 687H144Z" />
<glyph unicode="&lt;" horiz-adv-x="1136" d="M968 208L123 565L159 807L1111 1167L1074 916L456 684L1005 459L968 208Z" />
<glyph unicode="=" horiz-adv-x="1160" d="M162 811L194 1024L1115 1025L1083 812L162 811ZM94 354L126 567H1047L1015 354H94Z" />
<glyph unicode="&gt;" horiz-adv-x="1137" d="M74 208L112 459L729 684L178 916L216 1167L1062 807L1026 565L74 208Z" />
<glyph unicode="?" horiz-adv-x="1038" d="M362 452Q378 562 422 642T523 783T635 895T730 997T779 1111Q790 1182 745 1224T621 1266Q569 1266 517 1243T420 1177T345 1078L109 1138Q195 1296 335 1381T654 1466Q793 1466 891 1420T1035 1297T1067 1126Q1052
1028 1004 959T893 836T766 728T654 609T593 452H362ZM253 0L300 312H615L568 0H253Z" />
<glyph unicode="@" horiz-adv-x="1604" d="M702 -220Q528 -220 399 -163T190 -6T78 227T69 509Q93 667 168 807T361 1056T632 1226T964 1288Q1092 1288 1208 1252T1410 1140T1537 946T1554 661Q1531 513 1467 400T1309 222T1105 158Q1023 158 985 187T935 251Q930
263 927 263T912 251Q862 199 794 165T641 130Q561 130 502 172T417 293T407 475Q424 595 486 698T643 863T855 926Q935 926 977 897T1047 826Q1050 821 1054 822T1063 833L1078 876H1243L1110 446Q1088 375 1101 349T1149 323Q1194 323 1241 359T1325 468T1379
649Q1399 784 1370 875T1276 1022T1123 1103T938 1128Q783 1128 663 1079T456 945T318 748T247 512Q228 377 252 270T343 86T513 -29T755 -69Q843 -69 906 -53T1021 -10T1126 50L1194 -69Q1113 -130 985 -175T702 -220ZM720 307Q773 307 822 340T906 427T955 541Q969
603 959 650T919 724T844 751Q790 751 741 717T658 624T611 495Q600 417 626 362T720 307Z" />
<glyph unicode="A" horiz-adv-x="1421" d="M-16 0L701 1446H1004L1291 0H1004L941 335H438L273 0H-16ZM541 590H910L812 1164L541 590Z" />
<glyph unicode="B" horiz-adv-x="1343" d="M89 0L303 1446H814Q1091 1446 1210 1348T1302 1065Q1286 959 1222 880T1011 741Q1096 717 1144 679T1215 593T1240 493T1235 390Q1206 191 1060 96T625 0H89ZM413 226H664Q789 226 862 279T948 422Q957 486 932 529T857
594T738 616H470L413 226ZM503 848H771Q814 848 855 858T930 891T988 948T1018 1030Q1033 1124 973 1172T807 1220H558L503 848Z" />
<glyph unicode="C" horiz-adv-x="1412" d="M658 -20Q477 -20 354 59T171 285T121 633Q129 801 180 951T325 1218T557 1400T873 1466Q1030 1466 1143 1404T1316 1230T1376 967H1073Q1071 1042 1043 1100T962 1192T827 1226Q728 1226 657 1175T538 1038T467 843T435
620Q422 412 487 316T685 220Q765 220 828 258T937 360T1006 500H1309Q1281 397 1232 304T1105 137T918 22T658 -20Z" />
<glyph unicode="D" horiz-adv-x="1419" d="M90 0L297 1446Q308 1446 366 1446T498 1445Q641 1445 770 1434T1007 1390T1194 1294T1316 1129T1360 875Q1360 789 1345 692T1295 496T1197 309T1041 151T817 41T512 0H90ZM417 236H539Q665 236 762 285T926 422T1027
623T1061 870Q1061 991 1018 1065T895 1175T700 1210H560L417 236Z" />
<glyph unicode="E" horiz-adv-x="1255" d="M89 0L304 1446H1272L1234 1200H557L506 849H1091L1056 608H468L415 249L1104 248L1066 0H89Z" />
<glyph unicode="F" horiz-adv-x="1213" d="M89 0L304 1446H1263L1225 1202H558L505 839H1082L1046 600H469L381 0H89Z" />
<glyph unicode="G" horiz-adv-x="1489" d="M650 -20Q457 -20 328 70T146 327T126 719Q161 949 267 1116T532 1375T888 1466Q1055 1466 1172 1395T1346 1210T1388 967H1085Q1082 1036 1054 1093T973 1184T843 1219Q750 1219 668 1170T526 1012T440 727Q419 584
433 489T488 339T587 260T710 237Q772 237 823 258T914 314T980 388T1017 468L1041 556H753L783 758L1375 755L1263 0H1066L1093 189Q1049 140 990 92T847 12T650 -20Z" />
<glyph unicode="H" horiz-adv-x="1515" d="M89 0L293 1446H583L501 866H1113L1194 1446H1484L1280 0H990L1078 621H466L379 0H89Z" />
<glyph unicode="I" horiz-adv-x="623" d="M89 0L303 1446H592L379 0H89Z" />
<glyph unicode="J" horiz-adv-x="800" d="M223 -20Q157 -20 88 -9T-15 12L31 279Q58 273 93 263T171 253Q270 253 312 306T371 480L514 1446H802L648 402Q627 264 584 170T455 28T223 -20Z" />
<glyph unicode="K" horiz-adv-x="1407" d="M89 0L304 1446H604L507 784L1111 1446H1440L935 888L1279 0H965L695 674L450 415L389 0H89Z" />
<glyph unicode="L" horiz-adv-x="1136" d="M89 0L304 1446H594L417 247H1024L987 0H89Z" />
<glyph unicode="M" horiz-adv-x="1807" d="M89 0L303 1446H724L888 415L1359 1446H1776L1563 0H1272L1435 1106L938 0H713L543 1101L380 0H89Z" />
<glyph unicode="N" horiz-adv-x="1546" d="M89 0L304 1446H591L1085 489L1225 1446H1515L1300 0H1040L525 995L379 0H89Z" />
<glyph unicode="O" horiz-adv-x="1491" d="M666 -20Q466 -20 334 69T147 323T126 719Q161 950 266 1117T530 1375T886 1466Q1082 1466 1213 1376T1400 1119T1421 720Q1387 491 1284 325T1022 70T666 -20ZM702 220Q803 220 885 270T1023 430T1106 716Q1133 896
1109 1008T1018 1173T850 1226Q699 1226 590 1106T441 716Q415 540 440 431T533 271T702 220Z" />
<glyph unicode="P" horiz-adv-x="1286" d="M89 0L304 1446H823Q976 1446 1089 1392T1258 1231T1290 972Q1269 828 1192 726T994 570T722 516H458L381 0H89ZM488 742H748Q818 742 877 774T974 861T1023 987Q1038 1095 977 1158T814 1222H559L488 742Z" />
<glyph unicode="Q" horiz-adv-x="1516" d="M1273 -246Q1180 -246 1101 -230T953 -163T828 -6Q777 -13 741 -16T666 -20Q467 -20 335 68T147 322T127 720Q161 952 266 1119T530 1376T886 1466Q1083 1466 1215 1376T1402 1119T1423 720Q1394 522 1314 372T1102 121Q1115
61 1173 25T1309 -12L1273 -246ZM701 220Q859 220 963 335T1107 717Q1134 896 1111 1008T1021 1173T850 1226Q693 1226 588 1106T442 716Q404 451 474 336T701 220Z" />
<glyph unicode="R" horiz-adv-x="1365" d="M89 0L303 1446H897Q1066 1446 1165 1391T1300 1239T1318 1014Q1301 900 1255 822T1146 691T1012 606L1182 0H884L739 557H459L377 0H89ZM493 782H751Q825 782 883 810T978 889T1025 1007Q1040 1107 985 1165T835 1223H558L493
782Z" />
<glyph unicode="S" horiz-adv-x="1379" d="M623 -20Q517 -20 419 6T244 85T125 220T87 413H389Q393 347 427 302T520 233T655 209Q733 209 800 229T911 289T965 391Q973 446 946 481T868 538T750 574L513 625Q355 656 275 755T215 1021Q234 1157 322 1256T543
1410T831 1464Q999 1464 1114 1401T1288 1238T1339 1026H1043Q1047 1102 1017 1147T932 1212T802 1232Q726 1232 667 1210T573 1147T530 1055Q521 992 556 953T700 889L934 838Q1063 812 1133 761T1233 646T1266 516T1261 393Q1245 276 1159 183T934 35T623 -20Z"
/>
<glyph unicode="T" horiz-adv-x="1206" d="M380 0L554 1186H133L172 1446H1297L1258 1186H844L668 0H380Z" />
<glyph unicode="U" horiz-adv-x="1425" d="M646 -20Q439 -20 326 50T177 251T168 561L298 1446H593L458 539Q442 431 466 363T547 261T683 228Q802 228 890 302T1001 539L1134 1446H1426L1295 551Q1268 376 1194 248T985 50T646 -20Z" />
<glyph unicode="V" horiz-adv-x="1368" d="M436 0L169 1446H444L650 339L1184 1446H1460L761 0H436Z" />
<glyph unicode="W" horiz-adv-x="1886" d="M370 0L170 1446H453L571 491L969 1446H1177L1300 491L1697 1446H1979L1349 0H1120L998 945L595 0H370Z" />
<glyph unicode="X" horiz-adv-x="1404" d="M-16 0L559 734L213 1446H572L779 980L1122 1446H1428L897 772L1275 0H914L679 520L296 0H-16Z" />
<glyph unicode="Y" horiz-adv-x="1304" d="M424 0L512 609L150 1446H462L697 860L1099 1446H1415L802 608L711 0H424Z" />
<glyph unicode="Z" horiz-adv-x="1322" d="M35 0L57 142L922 1202H261L299 1446H1372L1352 1310L474 247H1186L1149 0H35Z" />
<glyph unicode="[" horiz-adv-x="677" d="M31 -322L292 1446H740L715 1281H503L291 -156H503L478 -322H31Z" />
<glyph unicode="\" horiz-adv-x="734" d="M418 -37L147 1446H347L619 -37H418Z" />
<glyph unicode="]" horiz-adv-x="690" d="M621 1446L360 -322H-88L-63 -157H149L361 1280H149L174 1446H621Z" />
<glyph unicode="^" horiz-adv-x="946" d="M31 246L442 982Q467 1027 506 1043T579 1046T627 983L818 245H624L500 756L224 246H31Z" />
<glyph unicode="_" horiz-adv-x="1086" d="M5 -276L37 -65L882 -64L849 -276H5Z" />
<glyph unicode="`" horiz-adv-x="606" d="M445 1446H142L473 1155H686L445 1446Z" />
<glyph unicode="a" horiz-adv-x="1132" d="M341 -20Q244 -20 173 17T67 124T46 296Q72 466 209 554T613 646L737 648L746 710Q757 783 719 820T604 857Q543 856 482 826T389 726H150Q172 833 241 906T416 1016T647 1054Q801 1054 888 1013T1007 899T1025 727L917
0H676L678 175Q609 63 527 22T341 -20ZM466 172Q504 172 541 186T611 225T664 281T692 345L714 498L614 496Q545 495 483 479T377 425T324 325Q315 253 356 213T466 172Z" />
<glyph unicode="b" horiz-adv-x="1196" d="M621 -20Q547 -20 495 0T410 53T358 128T331 212L268 0H59L263 1486H554L473 894Q496 927 529 956T605 1007T695 1041T797 1054Q985 1054 1073 915T1126 523Q1092 277 962 129T621 -20ZM586 190Q677 190 748 267T843
527Q865 688 818 765T673 842Q569 842 507 764T422 527Q397 344 439 267T586 190Z" />
<glyph unicode="c" horiz-adv-x="1060" d="M477 -20Q337 -20 237 44T91 227T70 513Q93 673 171 795T370 985T636 1054Q763 1054 848 1001T972 858T1002 657H762Q762 698 747 738T698 805T605 832Q507 832 435 754T338 515Q316 364 364 276T516 187Q573 187 615
216T684 285T721 361H955Q934 254 868 168T701 31T477 -20Z" />
<glyph unicode="d" horiz-adv-x="1194" d="M427 -20Q223 -20 130 123T71 523Q104 766 227 910T545 1054Q599 1054 644 1042T725 1007T787 956T827 894L908 1486H1199L995 0H785L781 212Q762 169 732 128T658 54T558 0T427 -20ZM520 190Q625 190 688 267T776 527Q790
633 776 703T722 807T611 842Q519 842 449 770T355 527Q331 354 377 272T520 190Z" />
<glyph unicode="e" horiz-adv-x="1115" d="M500 -20Q351 -20 247 44T98 227T76 505Q98 660 174 784T371 981T645 1054Q800 1054 894 988T1025 803T1038 529L1026 450H353Q340 371 356 313T416 223T526 191Q598 191 656 223T748 328H1007Q974 218 894 140T710 21T500
-20ZM377 624H783Q792 686 778 738T723 820T614 850Q550 850 500 818T417 733T377 624Z" />
<glyph unicode="f" horiz-adv-x="788" d="M161 0L284 831H99L130 1034H314L336 1183Q355 1308 437 1377T650 1446H883L854 1252H724Q670 1252 646 1225T611 1134L597 1034H813L782 831H572L449 0H161Z" />
<glyph unicode="g" horiz-adv-x="1228" d="M486 -342Q210 -342 76 -267T-41 -73Q-34 -23 -4 10T66 64T137 96T180 113Q169 121 142 139T93 190T78 276Q85 325 140 368T307 432Q217 478 175 563T146 741Q159 833 225 903T401 1011T657 1050Q766 1050 829 1026T940
968Q967 978 1007 993T1093 1027T1183 1062T1262 1093L1235 865L1053 828Q1068 767 1061 712Q1049 626 989 551T823 431T569 385Q546 385 515 386T468 388Q408 389 382 381T356 355Q358 329 398 318T511 300Q547 297 602 295T718 287Q908 275 992 190T1058 -23Q1039
-163 896 -252T486 -342ZM531 -179Q654 -179 712 -145T778 -48Q783 -6 751 19T646 49L419 64Q373 67 335 50T272 3T243 -63Q235 -122 304 -150T531 -179ZM576 548Q659 548 718 597T789 732Q800 807 762 851T648 896Q564 896 504 842T431 702Q421 631 459 590T576
548Z" />
<glyph unicode="h" horiz-adv-x="1177" d="M59 0L274 1486H563L477 898Q520 952 592 996T784 1040Q880 1040 954 1000T1065 886T1089 715L985 0H695L793 674Q803 740 760 777T647 814Q601 814 557 797T482 747T445 666L348 0H59Z" />
<glyph unicode="i" horiz-adv-x="561" d="M69 0L215 1034H492L346 0H69ZM233 1182L270 1445H552L515 1182H233Z" />
<glyph unicode="j" horiz-adv-x="579" d="M-26 -332Q-104 -332 -127 -318T-150 -303L-122 -108L-42 -100Q19 -92 45 -66T78 10L230 1034H519L366 7Q342 -162 248 -247T-26 -332ZM251 1201L291 1464H585L546 1201H251Z" />
<glyph unicode="k" horiz-adv-x="1145" d="M54 0L273 1486H563L433 605L861 1034H1170L743 622L1028 0H740L538 446L387 300L342 0H54Z" />
<glyph unicode="l" horiz-adv-x="644" d="M374 -18Q262 -18 200 9T114 80T88 179T94 290L272 1486H556L384 326Q376 269 394 234T477 190L523 187L496 7Q465 -3 434 -10T374 -18Z" />
<glyph unicode="m" horiz-adv-x="1758" d="M54 0L207 1034H489L469 901Q524 965 607 1009T808 1054Q885 1054 960 1019T1067 901Q1130 972 1220 1013T1396 1054Q1452 1054 1507 1035T1604 974T1666 868T1672 710L1567 0H1278L1380 678Q1389 738 1371 773T1320
825T1247 841Q1192 841 1151 821T1085 758T1049 651L953 0H665L769 704Q777 748 758 778T704 825T633 841Q595 841 555 825T484 777T446 694L341 0H54Z" />
<glyph unicode="n" horiz-adv-x="1172" d="M54 0L209 1034H491L472 901Q508 939 549 971T647 1023T784 1043Q876 1043 949 1000T1061 877T1082 689L980 0H691L788 654Q800 731 758 772T648 814Q603 814 558 798T481 749T443 669L343 0H54Z" />
<glyph unicode="o" horiz-adv-x="1116" d="M479 -20Q332 -20 232 45T89 229T70 511Q93 674 171 796T369 986T637 1054Q787 1054 886 988T1027 799T1045 511Q1022 355 947 236T753 48T479 -20ZM515 197Q588 197 639 242T721 360T764 521Q776 603 768 676T721 794T605
839Q530 839 478 797T396 682T353 521Q342 440 350 366T397 244T515 197Z" />
<glyph unicode="p" horiz-adv-x="1192" d="M13 -322L200 1034H490L471 885Q510 933 562 971T677 1032T807 1054Q920 1054 999 998T1113 824T1123 525Q1097 337 1026 217T852 38T631 -20Q583 -20 542 -7T468 31T410 86T369 155L304 -322H13ZM590 194Q682 194 755
273T851 523Q871 673 823 757T678 842Q569 842 503 751T419 523Q408 436 421 361T475 240T590 194Z" />
<glyph unicode="q" horiz-adv-x="1192" d="M948 -322H657L722 155Q688 106 640 67T535 4T414 -20Q300 -20 213 35T85 210T71 525Q95 700 159 817T319 994T532 1054Q583 1054 627 1042T709 1006T774 953T822 885L843 1034H1134L948 -322ZM514 194Q587 194 641 240T729
361T774 523Q792 659 752 750T602 842Q511 842 438 762T343 523Q321 360 369 277T514 194Z" />
<glyph unicode="r" horiz-adv-x="805" d="M54 0L200 1034H479L445 789Q480 868 533 927T654 1020T803 1054Q817 1054 828 1053T845 1048L805 770Q798 774 787 775T765 777Q653 787 581 763T472 687T424 566L345 0H54Z" />
<glyph unicode="s" horiz-adv-x="1031" d="M449 -20Q344 -20 251 15T101 127T42 326H293Q298 271 327 239T397 194T476 180Q557 180 610 206T671 288Q677 330 651 355T558 393L388 431Q257 460 185 529T130 727Q143 820 201 894T361 1011T601 1054Q789 1054 889
970T970 733H728Q726 793 684 825T570 858Q498 858 447 831T388 749Q382 708 417 685T533 644L690 606Q772 585 820 549T892 469T921 383T921 304Q907 201 843 129T678 18T449 -20Z" />
<glyph unicode="t" horiz-adv-x="833" d="M487 -11Q353 -11 285 24T198 122T190 268L273 831H110L141 1034H313L406 1346H638L592 1035H816L785 831H562L482 283Q474 226 494 210T559 194H694L667 14Q646 5 604 -3T487 -11Z" />
<glyph unicode="u" horiz-adv-x="1163" d="M423 -20Q354 -20 289 2T174 67T100 173T86 319L186 1034H477L382 356Q372 284 410 238T536 192Q619 192 673 236T739 361L834 1034H1122L977 0H758L754 205Q723 114 667 66T547 -1T423 -20Z" />
<glyph unicode="v" horiz-adv-x="1014" d="M323 0L99 1034H360L479 375H487L798 1034H1062L530 0H323Z" />
<glyph unicode="w" horiz-adv-x="1542" d="M278 0L106 1034H361L456 393H463L741 1034H946L1037 393H1044L1324 1034H1582L1097 0H871L777 626L499 0H278Z" />
<glyph unicode="x" horiz-adv-x="1147" d="M-39 0L427 539L149 1034H449L614 744L860 1034H1162L735 539L1040 0H739L550 337L264 0H-39Z" />
<glyph unicode="y" horiz-adv-x="1097" d="M152 -330Q49 -330 9 -313T-32 -295L-5 -109L95 -113Q182 -118 227 -100T290 -55T317 -14L344 43L99 1034H385L523 360L863 1034H1145L587 -6Q514 -138 444 -208T303 -304T152 -330Z" />
<glyph unicode="z" horiz-adv-x="974" d="M-7 0L14 163L603 830H142L170 1034H985L965 871L376 204H872L843 0H-7Z" />
<glyph unicode="{" horiz-adv-x="761" d="M423 -322Q346 -322 281 -295T179 -215T154 -83L214 324Q222 371 205 410T143 473T21 497L44 644Q160 645 218 691T289 825L346 1210Q357 1288 409 1340T534 1419T681 1446H824L799 1281H713Q658 1281 631 1267T593 1230T578
1177L519 781Q507 711 469 668T381 603T284 577Q272 576 271 571T282 564Q326 560 370 541T439 476T455 349L396 -51Q388 -106 409 -131T502 -156H586L561 -322H423Z" />
<glyph unicode="|" horiz-adv-x="547" d="M44 -322L335 1652H546L254 -322H44Z" />
<glyph unicode="}" horiz-adv-x="760" d="M312 1446Q389 1446 454 1419T556 1339T581 1207L521 800Q513 753 530 714T592 651T714 627L691 480Q575 479 517 433T446 299L389 -86Q378 -164 326 -216T201 -295T54 -322H-89L-64 -157H22Q77 -157 104 -143T142 -106T157
-53L216 343Q228 413 266 456T354 521T451 547Q463 548 464 553T453 560Q409 564 365 583T296 648T280 775L339 1175Q347 1230 326 1255T233 1280H149L174 1446H312Z" />
<glyph unicode="~" horiz-adv-x="1200" d="M200 555L139 702Q222 778 301 829T476 881Q535 881 578 862T659 820T733 777T816 758Q886 758 944 800T1044 900L1106 755Q1045 667 962 621T793 574Q735 574 691 592T610 635T534 678T445 697Q371 697 312 653T200 555Z" />
<glyph unicode="&#xa0;" horiz-adv-x="424" />
<glyph unicode="&#xa1;" horiz-adv-x="557" d="M-13 -322L193 586H373L327 -322H-13ZM142 722L186 1034H502L458 722H142Z" />
<glyph unicode="&#xa2;" horiz-adv-x="1153" d="M615 1110L666 1446H854L804 1110H615ZM421 0L472 336H661L611 0H421ZM561 202Q412 202 306 266T152 449T129 735Q154 895 237 1017T446 1207T728 1276Q864 1276 953 1223T1084 1080T1116 879H858Q858 920 843 960T792
1027T695 1054Q592 1054 517 976T416 737Q393 586 443 498T602 409Q662 409 706 438T777 507T815 583H1066Q1044 476 974 390T798 253T561 202Z" />
<glyph unicode="&#xa3;" horiz-adv-x="1268" d="M-32 0L4 242H70Q142 242 196 290T266 448Q274 496 276 545T280 677H80L106 839H271L279 1020Q281 1128 324 1211T439 1351T600 1437T784 1466Q890 1466 974 1432T1115 1334T1197 1179L935 1101Q915 1171 884 1202T793
1234Q725 1234 675 1190T613 1065Q607 1023 607 968T612 840H895L870 678H609Q605 610 598 564T573 467Q558 410 537 370T488 301T427 244H685Q778 244 830 280T927 404L1162 350Q1090 176 968 88T669 0H-32Z" />
<glyph unicode="&#xa4;" horiz-adv-x="1139" d="M153 234L53 360L201 490Q174 546 166 601T167 727Q177 789 199 843T259 947Q266 958 266 964T259 978L163 1096L302 1223L413 1088Q468 1122 530 1141T653 1161Q773 1161 867 1096Q878 1088 890 1098L1014 1210L1115
1085L979 964Q1004 911 1013 852T1013 728Q1004 668 980 609T915 501Q909 490 913 485L1010 372L870 247L771 368Q714 333 653 314T529 294Q409 294 318 356Q303 368 288 353L153 234ZM556 487Q622 487 679 520T776 609T824 728Q834 791 812 846T742 935T627 969Q561
969 503 935T406 846T358 728Q348 664 370 609T441 521T556 487Z" />
<glyph unicode="&#xa5;" horiz-adv-x="1284" d="M402 0L490 603L120 1446H494L724 867L1124 1446H1426L824 638L729 0H402ZM146 224L169 382L1075 383L1052 225L146 224ZM192 537L216 696L1123 697L1099 537H192Z" />
<glyph unicode="&#xa6;" horiz-adv-x="547" d="M215 837L335 1652H546L425 837H215ZM44 -322L164 494H373L254 -322H44Z" />
<glyph unicode="&#xa7;" horiz-adv-x="1003" d="M408 -155Q295 -155 210 -123T69 -38T-6 77L184 167Q216 111 272 67T429 23Q505 23 557 50T617 132Q623 172 597 205T488 274L348 331Q202 391 143 464T99 651Q113 743 169 809T309 913Q228 969 204 1028T188 1158Q201
1245 259 1314T412 1425T628 1466Q727 1466 804 1435T932 1354T1003 1246L813 1158Q778 1207 731 1247T609 1288Q541 1288 499 1260T449 1185Q445 1150 470 1123T540 1076L682 1016Q835 952 897 876T941 683Q928 589 876 527T747 423Q828 372 859 312T878 169Q864
74 805 1T645 -113T408 -155ZM559 515Q596 511 628 528T679 575T701 643Q703 687 676 721T575 786L494 821Q450 817 417 799T364 752T339 693Q333 650 357 622T469 555L559 515Z" />
<glyph unicode="&#xa8;" horiz-adv-x="738" d="M545 1184L581 1422H854L819 1184H545ZM104 1184L140 1422H413L378 1184H104Z" />
<glyph unicode="&#xa9;" horiz-adv-x="1618" d="M721 -20Q572 -20 450 37T243 197T123 434T110 724Q132 877 208 1011T398 1248T652 1408T940 1466Q1090 1466 1212 1408T1418 1248T1539 1012T1553 724Q1529 569 1453 434T1262 197T1009 38T721 -20ZM775 313Q663
313 583 365T467 510T449 725Q467 849 531 943T690 1089T898 1142Q993 1142 1056 1103T1154 1005T1199 883L996 860Q990 893 978 922T943 970T882 989Q833 989 793 960T723 874T681 729Q661 595 699 531T817 466Q885 466 931 505T1015 605L1153 568Q1136 532 1105
488T1026 404T916 339T775 313ZM746 143Q865 143 970 183T1160 300T1301 483T1378 724Q1397 856 1373 962T1286 1146T1130 1264T917 1306Q797 1306 691 1265T500 1146T360 963T285 724Q258 547 308 417T472 215T746 143Z" />
<glyph unicode="&#xaa;" horiz-adv-x="781" d="M312 794Q218 794 174 844T142 978Q156 1075 247 1135T485 1201L558 1205L563 1248Q572 1305 544 1324T479 1343Q443 1343 409 1326T346 1259L200 1295Q247 1378 315 1421T502 1464Q645 1463 694 1408T730 1257Q718
1174 711 1120T695 1006Q694 995 691 969T685 913T682 865L686 806H515L510 876Q457 835 413 815T312 794ZM394 913Q450 913 491 948Q507 962 517 975T530 1006L543 1103L484 1100Q411 1097 366 1068T314 989Q309 955 330 934T394 913Z" />
<glyph unicode="&#xab;" horiz-adv-x="981" d="M642 129L468 502L755 891H909L695 502L795 129H642ZM272 129L99 502L384 891H539L325 502L424 129H272Z" />
<glyph unicode="&#xac;" horiz-adv-x="1156" d="M131 621L163 834H1084L1051 621H131ZM773 319L837 761H1072L1007 319H773Z" />
<glyph unicode="&#xad;" horiz-adv-x="772" d="M105 408L135 621H666L636 409L105 408Z" />
<glyph unicode="&#xae;" horiz-adv-x="1077" d="M533 536Q407 536 314 598T175 765T149 1000Q168 1129 244 1235T432 1403T670 1466Q794 1466 886 1404T1024 1235T1051 1000Q1032 871 956 766T769 598T533 536ZM550 652Q648 652 728 695T860 816T928 1000Q943
1106 914 1184T818 1306T653 1350Q553 1350 473 1307T341 1185T273 1000Q250 842 325 747T550 652ZM384 767L453 1228H663Q744 1228 784 1197T816 1105Q809 1057 778 1027T707 981L764 767H640L602 969H526L497 767H384ZM538 1050H631Q657 1050 675 1062T698 1098Q701
1121 687 1134T640 1148H552L538 1050Z" />
<glyph unicode="&#xaf;" horiz-adv-x="773" d="M138 1205L166 1392H854L826 1205H138Z" />
<glyph unicode="&#xb0;" horiz-adv-x="930" d="M523 1001Q429 1001 362 1044T264 1162T247 1336Q262 1434 315 1510T449 1629T623 1673Q716 1673 783 1630T881 1510T899 1336Q884 1238 830 1163T696 1044T523 1001ZM546 1165Q617 1165 665 1212T725 1334Q737 1408
702 1455T594 1502Q523 1502 474 1455T414 1334Q405 1260 439 1213T546 1165Z" />
<glyph unicode="&#xb1;" horiz-adv-x="1161" d="M463 427L603 1371H814L672 427H463ZM54 71L86 283H1006L975 72L54 71ZM161 791L193 1004L1113 1005L1081 792L161 791Z" />
<glyph unicode="&#xb2;" horiz-adv-x="766" d="M64 768L76 859L83 905Q94 986 135 1042T235 1137T357 1206T478 1265T574 1329T620 1414Q627 1469 596 1503T500 1538Q455 1538 417 1521T351 1468T308 1379H133Q147 1466 195 1536T326 1648T526 1690Q627 1690 694
1656T792 1560T811 1415Q799 1335 759 1281T663 1189T544 1125T427 1072T334 1012T290 931L289 923H741L719 768H64Z" />
<glyph unicode="&#xb3;" horiz-adv-x="829" d="M406 754Q298 755 228 790T126 892T107 1049H282Q284 972 325 938T428 903Q483 903 524 919T591 964T622 1032Q627 1071 610 1099T556 1143T471 1161L387 1164L407 1310L485 1314Q533 1316 570 1332T631 1376T659
1438Q664 1471 647 1495T597 1534T518 1548Q476 1548 439 1534T374 1486T335 1398H161Q175 1496 229 1560T365 1657T542 1690Q642 1690 716 1664T828 1583T854 1446Q844 1379 799 1328T664 1246Q711 1232 748 1204T805 1132T816 1026Q807 959 771 908T678 823T553
771T406 754Z" />
<glyph unicode="&#xb4;" horiz-adv-x="524" d="M341 1446H644L313 1155H100L341 1446Z" />
<glyph unicode="&#xb5;" horiz-adv-x="1185" d="M-6 -330L200 1060H496L398 401Q393 360 409 328T459 278T537 260Q600 260 656 297T751 399L847 1060H1147L985 0H697L720 164Q663 112 615 84T513 47Q469 41 428 45T350 70L291 -330H-6Z" />
<glyph unicode="&#xb6;" horiz-adv-x="1171" d="M362 -166L475 598Q367 606 284 657T161 798T140 1017Q157 1134 223 1231T399 1387T655 1446H1189L1164 1281H1042L828 -166H652L866 1281H754L538 -166H362Z" />
<glyph unicode="&#xb7;" horiz-adv-x="516" d="M109 585L153 872H446L402 585H109Z" />
<glyph unicode="&#xb8;" horiz-adv-x="536" d="M122 -425Q61 -425 6 -413T-95 -371L-41 -273Q-14 -292 22 -307T102 -322Q148 -322 175 -306T207 -260Q213 -221 179 -200T54 -178Q42 -178 38 -175T42 -159L138 10H264L205 -107Q277 -109 317 -133T370 -192T379
-263Q372 -314 334 -350T240 -406T122 -425Z" />
<glyph unicode="&#xb9;" horiz-adv-x="504" d="M198 760L300 1441H142L158 1545Q234 1545 283 1560T359 1603T398 1670H517L382 760H198Z" />
<glyph unicode="&#xba;" horiz-adv-x="744" d="M409 795Q273 795 205 888T156 1127Q171 1228 220 1304T344 1422T506 1465Q642 1465 711 1371T760 1127Q747 1030 699 955T576 838T409 795ZM428 923Q491 923 529 976T582 1132Q596 1235 573 1287T488 1340Q426 1340
388 1288T336 1132Q321 1029 344 976T428 923Z" />
<glyph unicode="&#xbb;" horiz-adv-x="1003" d="M437 129L650 502L550 891H704L874 502L591 129H437ZM68 129L278 502L180 891H334L504 502L220 129H68Z" />
<glyph unicode="&#xbc;" horiz-adv-x="1614" d="M198 552L300 1233H142L158 1337Q234 1337 283 1352T359 1395T398 1462H517L382 552H198ZM311 -8L144 -5L1310 1462H1474L311 -8ZM1442 0L1472 201H1066L1089 352L1572 910H1750L1669 355H1805L1781 201H1645L1615
0H1442ZM1257 355H1495L1544 689L1257 355Z" />
<glyph unicode="&#xbd;" horiz-adv-x="1755" d="M198 552L300 1233H142L158 1337Q234 1337 283 1352T359 1395T398 1462H517L382 552H198ZM311 -8L144 -5L1310 1462H1474L311 -8ZM1231 0L1243 91L1250 137Q1261 218 1302 274T1402 369T1524 438T1645 497T1741
561T1787 646Q1794 701 1763 735T1667 770Q1622 770 1584 753T1518 700T1475 611H1300Q1314 698 1362 768T1493 880T1693 922Q1794 922 1861 888T1959 792T1978 647Q1966 567 1926 513T1830 421T1711 357T1594 304T1501 244T1457 163L1456 155H1908L1886 0H1231Z"
/>
<glyph unicode="&#xbe;" horiz-adv-x="1862" d="M406 544Q298 545 228 580T126 682T107 839H282Q284 762 325 728T428 693Q483 693 524 709T591 754T622 822Q627 861 610 889T556 933T471 951L387 954L407 1100L485 1104Q533 1106 570 1122T631 1166T659 1228Q664
1261 647 1285T597 1324T518 1338Q476 1338 439 1324T374 1276T335 1188H161Q175 1286 229 1350T365 1447T542 1480Q642 1480 716 1454T828 1373T854 1236Q844 1169 799 1118T664 1036Q711 1022 748 994T805 922T816 816Q807 749 771 698T678 613T553 561T406 544ZM558
-8L391 -5L1557 1462H1721L558 -8ZM1690 0L1720 201H1314L1337 352L1820 910H1998L1917 355H2053L2029 201H1893L1863 0H1690ZM1505 355H1743L1792 689L1505 355Z" />
<glyph unicode="&#xbf;" horiz-adv-x="1067" d="M414 -342Q260 -342 163 -296T23 -173T-6 0Q8 97 54 161T163 271T287 361T394 459T451 595H685Q671 495 629 426T532 305T424 211T332 122T284 15Q275 -51 321 -93T444 -135Q496 -135 549 -112T646 -48T719 47L957
-12Q874 -170 734 -256T414 -342ZM427 722L471 1034H787L744 722H427Z" />
<glyph unicode="&#xc0;" horiz-adv-x="1421" d="M-16 0L701 1446H1004L1291 0H1004L941 335H438L273 0H-16ZM541 590H910L812 1164L541 590ZM727 1858H424L755 1567H968L727 1858Z" />
<glyph unicode="&#xc1;" horiz-adv-x="1421" d="M-16 0L701 1446H1004L1291 0H1004L941 335H438L273 0H-16ZM541 590H910L812 1164L541 590ZM1003 1858H1306L975 1567H762L1003 1858Z" />
<glyph unicode="&#xc2;" horiz-adv-x="1421" d="M-16 0L701 1446H1004L1291 0H1004L941 335H438L273 0H-16ZM541 590H910L812 1164L541 590ZM463 1567L730 1826H929L1173 1567H947L825 1707L677 1567H463Z" />
<glyph unicode="&#xc3;" horiz-adv-x="1421" d="M-16 0L701 1446H1004L1291 0H1004L941 335H438L273 0H-16ZM541 590H910L812 1164L541 590ZM589 1608L565 1749Q607 1788 654 1814T768 1841Q822 1841 869 1826T959 1796T1047 1780Q1097 1780 1141 1802T1218 1850L1231
1687Q1197 1662 1143 1639T1022 1616Q968 1616 926 1630T842 1658T752 1673Q703 1673 668 1657T589 1608Z" />
<glyph unicode="&#xc4;" horiz-adv-x="1421" d="M-16 0L701 1446H1004L1291 0H1004L941 335H438L273 0H-16ZM541 590H910L812 1164L541 590ZM957 1596L993 1834H1266L1231 1596H957ZM516 1596L552 1834H825L790 1596H516Z" />
<glyph unicode="&#xc5;" horiz-adv-x="1421" d="M-16 0L701 1446H1004L1291 0H1004L941 335H438L273 0H-16ZM541 590H910L812 1164L541 590ZM868 1547Q779 1547 727 1611T689 1768Q698 1826 734 1874T822 1950T933 1978Q1021 1978 1073 1916T1112 1764Q1104 1703
1068 1654T980 1576T868 1547ZM884 1661Q924 1661 956 1692T995 1763Q1001 1806 978 1834T913 1862Q874 1862 841 1834T800 1763Q794 1723 819 1692T884 1661Z" />
<glyph unicode="&#xc6;" horiz-adv-x="2032" d="M-73 0L890 1446H2046L2008 1203H1344L1292 848H1869L1833 608H1256L1203 244H1888L1852 0H837L887 338H435L216 0H-73ZM582 590H924L1023 1255L582 590Z" />
<glyph unicode="&#xc7;" horiz-adv-x="1412" d="M658 -20Q477 -20 354 59T171 285T121 633Q129 801 180 951T325 1218T557 1400T873 1466Q1030 1466 1143 1404T1316 1230T1376 967H1073Q1071 1042 1043 1100T962 1192T827 1226Q728 1226 657 1175T538 1038T467
843T435 620Q422 412 487 316T685 220Q765 220 828 258T937 360T1006 500H1309Q1281 397 1232 304T1105 137T918 22T658 -20ZM590 -425Q529 -425 474 -413T373 -371L427 -273Q454 -292 490 -307T570 -322Q616 -322 643 -306T675 -260Q681 -221 647 -200T522 -178Q510
-178 506 -175T510 -159L606 10H732L673 -107Q745 -109 785 -133T838 -192T847 -263Q840 -314 802 -350T708 -406T590 -425Z" />
<glyph unicode="&#xc8;" horiz-adv-x="1255" d="M89 0L304 1446H1272L1234 1200H557L506 849H1091L1056 608H468L415 249L1104 248L1066 0H89ZM641 1858H338L669 1567H882L641 1858Z" />
<glyph unicode="&#xc9;" horiz-adv-x="1255" d="M89 0L304 1446H1272L1234 1200H557L506 849H1091L1056 608H468L415 249L1104 248L1066 0H89ZM917 1858H1220L889 1567H676L917 1858Z" />
<glyph unicode="&#xca;" horiz-adv-x="1255" d="M89 0L304 1446H1272L1234 1200H557L506 849H1091L1056 608H468L415 249L1104 248L1066 0H89ZM429 1567L696 1826H895L1139 1567H913L791 1707L643 1567H429Z" />
<glyph unicode="&#xcb;" horiz-adv-x="1255" d="M89 0L304 1446H1272L1234 1200H557L506 849H1091L1056 608H468L415 249L1104 248L1066 0H89ZM871 1596L907 1834H1180L1145 1596H871ZM430 1596L466 1834H739L704 1596H430Z" />
<glyph unicode="&#xcc;" horiz-adv-x="623" d="M89 0L303 1446H592L379 0H89ZM323 1858H20L351 1567H564L323 1858Z" />
<glyph unicode="&#xcd;" horiz-adv-x="623" d="M89 0L303 1446H592L379 0H89ZM599 1858H902L571 1567H358L599 1858Z" />
<glyph unicode="&#xce;" horiz-adv-x="623" d="M89 0L303 1446H592L379 0H89ZM111 1567L378 1826H577L821 1567H595L473 1707L325 1567H111Z" />
<glyph unicode="&#xcf;" horiz-adv-x="623" d="M89 0L303 1446H592L379 0H89ZM553 1596L589 1834H862L827 1596H553ZM112 1596L148 1834H421L386 1596H112Z" />
<glyph unicode="&#xd0;" horiz-adv-x="1529" d="M87 608L114 822H892L865 608H87ZM200 0L407 1446Q418 1446 476 1446T608 1445Q751 1445 880 1434T1117 1390T1304 1294T1426 1129T1470 875Q1470 789 1455 692T1405 496T1307 309T1151 151T927 41T622 0H200ZM527
236H650Q775 236 872 285T1036 422T1137 623T1171 870Q1171 991 1129 1065T1005 1175T810 1210H670L527 236Z" />
<glyph unicode="&#xd1;" horiz-adv-x="1546" d="M89 0L304 1446H591L1085 489L1225 1446H1515L1300 0H1040L525 995L379 0H89ZM645 1608L621 1749Q663 1788 710 1814T824 1841Q878 1841 925 1826T1015 1796T1103 1780Q1153 1780 1197 1802T1274 1850L1287 1687Q1253
1662 1199 1639T1078 1616Q1024 1616 982 1630T898 1658T808 1673Q759 1673 724 1657T645 1608Z" />
<glyph unicode="&#xd2;" horiz-adv-x="1491" d="M666 -20Q466 -20 334 69T147 323T126 719Q161 950 266 1117T530 1375T886 1466Q1082 1466 1213 1376T1400 1119T1421 720Q1387 491 1284 325T1022 70T666 -20ZM702 220Q803 220 885 270T1023 430T1106 716Q1133
896 1109 1008T1018 1173T850 1226Q699 1226 590 1106T441 716Q415 540 440 431T533 271T702 220ZM744 1858H441L772 1567H985L744 1858Z" />
<glyph unicode="&#xd3;" horiz-adv-x="1491" d="M666 -20Q466 -20 334 69T147 323T126 719Q161 950 266 1117T530 1375T886 1466Q1082 1466 1213 1376T1400 1119T1421 720Q1387 491 1284 325T1022 70T666 -20ZM702 220Q803 220 885 270T1023 430T1106 716Q1133
896 1109 1008T1018 1173T850 1226Q699 1226 590 1106T441 716Q415 540 440 431T533 271T702 220ZM1020 1858H1323L992 1567H779L1020 1858Z" />
<glyph unicode="&#xd4;" horiz-adv-x="1491" d="M666 -20Q466 -20 334 69T147 323T126 719Q161 950 266 1117T530 1375T886 1466Q1082 1466 1213 1376T1400 1119T1421 720Q1387 491 1284 325T1022 70T666 -20ZM702 220Q803 220 885 270T1023 430T1106 716Q1133
896 1109 1008T1018 1173T850 1226Q699 1226 590 1106T441 716Q415 540 440 431T533 271T702 220ZM532 1567L799 1826H998L1242 1567H1016L894 1707L746 1567H532Z" />
<glyph unicode="&#xd5;" horiz-adv-x="1491" d="M666 -20Q466 -20 334 69T147 323T126 719Q161 950 266 1117T530 1375T886 1466Q1082 1466 1213 1376T1400 1119T1421 720Q1387 491 1284 325T1022 70T666 -20ZM702 220Q803 220 885 270T1023 430T1106 716Q1133
896 1109 1008T1018 1173T850 1226Q699 1226 590 1106T441 716Q415 540 440 431T533 271T702 220ZM607 1608L583 1749Q625 1788 672 1814T786 1841Q840 1841 887 1826T977 1796T1065 1780Q1115 1780 1159 1802T1236 1850L1249 1687Q1215 1662 1161 1639T1040 1616Q986
1616 944 1630T860 1658T770 1673Q721 1673 686 1657T607 1608Z" />
<glyph unicode="&#xd6;" horiz-adv-x="1491" d="M666 -20Q466 -20 334 69T147 323T126 719Q161 950 266 1117T530 1375T886 1466Q1082 1466 1213 1376T1400 1119T1421 720Q1387 491 1284 325T1022 70T666 -20ZM702 220Q803 220 885 270T1023 430T1106 716Q1133
896 1109 1008T1018 1173T850 1226Q699 1226 590 1106T441 716Q415 540 440 431T533 271T702 220ZM974 1596L1010 1834H1283L1248 1596H974ZM533 1596L569 1834H842L807 1596H533Z" />
<glyph unicode="&#xd7;" horiz-adv-x="1133" d="M226 269L103 420L963 1188L1089 1037L226 269ZM823 269L192 1036L362 1187L995 420L823 269Z" />
<glyph unicode="&#xd8;" horiz-adv-x="1521" d="M91 -27L-16 104L171 276Q134 363 125 474T134 719Q168 950 273 1117T537 1375T893 1466Q1026 1466 1128 1425T1300 1305L1483 1471L1587 1342L1392 1160Q1429 1073 1438 962T1429 720Q1395 491 1292 325T1030 70T673
-20Q542 -20 441 20T268 133L91 -27ZM710 215Q837 215 920 301T1045 570Q1065 649 1075 729T1087 897L496 333Q553 215 710 215ZM475 538L1069 1104Q1042 1171 990 1202T859 1234Q726 1234 640 1138T509 840Q492 765 484 690T475 538Z" />
<glyph unicode="&#xd9;" horiz-adv-x="1425" d="M646 -20Q439 -20 326 50T177 251T168 561L298 1446H593L458 539Q442 431 466 363T547 261T683 228Q802 228 890 302T1001 539L1134 1446H1426L1295 551Q1268 376 1194 248T985 50T646 -20ZM736 1858H433L764 1567H977L736
1858Z" />
<glyph unicode="&#xda;" horiz-adv-x="1425" d="M646 -20Q439 -20 326 50T177 251T168 561L298 1446H593L458 539Q442 431 466 363T547 261T683 228Q802 228 890 302T1001 539L1134 1446H1426L1295 551Q1268 376 1194 248T985 50T646 -20ZM1012 1858H1315L984
1567H771L1012 1858Z" />
<glyph unicode="&#xdb;" horiz-adv-x="1425" d="M646 -20Q439 -20 326 50T177 251T168 561L298 1446H593L458 539Q442 431 466 363T547 261T683 228Q802 228 890 302T1001 539L1134 1446H1426L1295 551Q1268 376 1194 248T985 50T646 -20ZM524 1567L791 1826H990L1234
1567H1008L886 1707L738 1567H524Z" />
<glyph unicode="&#xdc;" horiz-adv-x="1425" d="M646 -20Q439 -20 326 50T177 251T168 561L298 1446H593L458 539Q442 431 466 363T547 261T683 228Q802 228 890 302T1001 539L1134 1446H1426L1295 551Q1268 376 1194 248T985 50T646 -20ZM966 1596L1002 1834H1275L1240
1596H966ZM525 1596L561 1834H834L799 1596H525Z" />
<glyph unicode="&#xdd;" horiz-adv-x="1304" d="M424 0L512 609L150 1446H462L697 860L1099 1446H1415L802 608L711 0H424ZM919 1859H1222L891 1568H678L919 1859Z" />
<glyph unicode="&#xde;" horiz-adv-x="1339" d="M1311 737Q1291 594 1208 497T997 350T712 300H423L381 0H89L293 1446H584L545 1169H831Q989 1169 1104 1122T1275 979T1311 737ZM1008 737Q1018 802 989 844T909 907T796 928L511 929L457 541H746Q805 541 861
561T958 625T1008 737Z" />
<glyph unicode="&#xdf;" horiz-adv-x="1174" d="M629 -20Q554 -20 494 -2T393 47L498 227Q525 207 559 188T647 168Q715 168 765 203T824 306Q831 354 812 383T756 433T669 477Q619 501 579 534T519 616T507 736Q519 812 559 863T659 957Q694 984 725 1009T780
1064T808 1135Q815 1188 784 1222T680 1257Q595 1257 538 1200T467 1044L320 0H55L193 989Q208 1079 245 1161T347 1308T503 1409T720 1446Q844 1446 923 1410T1035 1306T1054 1150Q1045 1078 1011 1027T919 936T775 860Q744 844 731 833T714 804Q712 785 722 776T761
756Q822 726 882 693T989 613T1060 501T1070 337Q1054 220 993 141T839 21T629 -20Z" />
<glyph unicode="&#xe0;" horiz-adv-x="1133" d="M342 -20Q245 -20 174 17T68 124T47 296Q73 466 210 554T614 646L738 648L747 710Q758 783 720 820T605 857Q544 856 483 826T390 726H151Q173 833 242 906T417 1016T648 1054Q802 1054 889 1013T1008 899T1026
727L918 0H677L679 175Q610 63 528 22T342 -20ZM467 172Q505 172 542 186T612 225T665 281T693 345L715 498L615 496Q546 495 484 479T378 425T325 325Q316 253 357 213T467 172ZM527 1446H224L555 1155H768L527 1446Z" />
<glyph unicode="&#xe1;" horiz-adv-x="1132" d="M341 -20Q244 -20 173 17T67 124T46 296Q72 466 209 554T613 646L737 648L746 710Q757 783 719 820T604 857Q543 856 482 826T389 726H150Q172 833 241 906T416 1016T647 1054Q801 1054 888 1013T1007 899T1025
727L917 0H676L678 175Q609 63 527 22T341 -20ZM466 172Q504 172 541 186T611 225T664 281T692 345L714 498L614 496Q545 495 483 479T377 425T324 325Q315 253 356 213T466 172ZM789 1446H1092L761 1155H548L789 1446Z" />
<glyph unicode="&#xe2;" horiz-adv-x="1132" d="M341 -20Q244 -20 173 17T67 124T46 296Q72 466 209 554T613 646L737 648L746 710Q757 783 719 820T604 857Q543 856 482 826T389 726H150Q172 833 241 906T416 1016T647 1054Q801 1054 888 1013T1007 899T1025
727L917 0H676L678 175Q609 63 527 22T341 -20ZM466 172Q504 172 541 186T611 225T664 281T692 345L714 498L614 496Q545 495 483 479T377 425T324 325Q315 253 356 213T466 172ZM301 1155L568 1414H767L1011 1155H785L663 1295L515 1155H301Z" />
<glyph unicode="&#xe3;" horiz-adv-x="1132" d="M341 -20Q244 -20 173 17T67 124T46 296Q72 466 209 554T613 646L737 648L746 710Q757 783 719 820T604 857Q543 856 482 826T389 726H150Q172 833 241 906T416 1016T647 1054Q801 1054 888 1013T1007 899T1025
727L917 0H676L678 175Q609 63 527 22T341 -20ZM466 172Q504 172 541 186T611 225T664 281T692 345L714 498L614 496Q545 495 483 479T377 425T324 325Q315 253 356 213T466 172ZM376 1196L352 1337Q394 1376 441 1402T555 1429Q609 1429 656 1414T746 1384T834
1368Q884 1368 928 1390T1005 1438L1018 1275Q984 1250 930 1227T809 1204Q755 1204 713 1218T629 1246T539 1261Q490 1261 455 1245T376 1196Z" />
<glyph unicode="&#xe4;" horiz-adv-x="1132" d="M341 -20Q244 -20 173 17T67 124T46 296Q72 466 209 554T613 646L737 648L746 710Q757 783 719 820T604 857Q543 856 482 826T389 726H150Q172 833 241 906T416 1016T647 1054Q801 1054 888 1013T1007 899T1025
727L917 0H676L678 175Q609 63 527 22T341 -20ZM466 172Q504 172 541 186T611 225T664 281T692 345L714 498L614 496Q545 495 483 479T377 425T324 325Q315 253 356 213T466 172ZM740 1180L776 1418H1049L1014 1180H740ZM299 1180L335 1418H608L573 1180H299Z"
/>
<glyph unicode="&#xe5;" horiz-adv-x="1132" d="M341 -20Q244 -20 173 17T67 124T46 296Q72 466 209 554T613 646L737 648L746 710Q757 783 719 820T604 857Q543 856 482 826T389 726H150Q172 833 241 906T416 1016T647 1054Q801 1054 888 1013T1007 899T1025
727L917 0H676L678 175Q609 63 527 22T341 -20ZM466 172Q504 172 541 186T611 225T664 281T692 345L714 498L614 496Q545 495 483 479T377 425T324 325Q315 253 356 213T466 172ZM660 1135Q571 1135 519 1199T481 1356Q490 1414 526 1462T614 1538T725 1566Q813
1566 865 1504T904 1352Q896 1291 860 1242T772 1164T660 1135ZM676 1249Q716 1249 748 1280T787 1351Q793 1394 770 1422T705 1450Q666 1450 633 1422T592 1351Q586 1311 611 1280T676 1249Z" />
<glyph unicode="&#xe6;" horiz-adv-x="1794" d="M325 -20Q168 -20 96 61T43 274Q66 428 209 522T614 632L744 641L753 708Q765 784 731 826T613 869Q555 869 494 837T383 726L144 785Q197 872 264 932T426 1023T651 1054Q781 1053 861 1021T979 927Q1048 990 1131
1022T1305 1054Q1448 1054 1548 984T1692 782T1709 462L1009 461Q1000 400 1011 349T1052 260T1123 202T1216 181Q1271 181 1317 198T1406 248T1497 326L1663 247Q1588 149 1510 91T1344 6T1150 -20Q1059 -20 990 5T870 72T784 161Q778 171 767 161Q709 107 644
67T501 3T325 -20ZM465 162Q520 163 570 184T655 241T697 323L720 486L615 478Q547 472 485 450T381 389T330 293Q322 234 356 197T465 162ZM1450 622Q1458 679 1444 736T1392 833T1289 872Q1230 872 1177 844T1087 760T1039 624L1450 622Z" />
<glyph unicode="&#xe7;" horiz-adv-x="1060" d="M477 -20Q337 -20 237 44T91 227T70 513Q93 673 171 795T370 985T636 1054Q763 1054 848 1001T972 858T1002 657H762Q762 698 747 738T698 805T605 832Q507 832 435 754T338 515Q316 364 364 276T516 187Q573 187
615 216T684 285T721 361H955Q934 254 868 168T701 31T477 -20ZM410 -425Q349 -425 294 -413T193 -371L247 -273Q274 -292 310 -307T390 -322Q436 -322 463 -306T495 -260Q501 -221 467 -200T342 -178Q330 -178 326 -175T330 -159L426 10H552L493 -107Q565 -109
605 -133T658 -192T667 -263Q660 -314 622 -350T528 -406T410 -425Z" />
<glyph unicode="&#xe8;" horiz-adv-x="1115" d="M500 -20Q351 -20 247 44T98 227T76 505Q98 660 174 784T371 981T645 1054Q800 1054 894 988T1025 803T1038 529L1026 450H353Q340 371 356 313T416 223T526 191Q598 191 656 223T748 328H1007Q974 218 894 140T710
21T500 -20ZM377 624H783Q792 686 778 738T723 820T614 850Q550 850 500 818T417 733T377 624ZM517 1446H214L545 1155H758L517 1446Z" />
<glyph unicode="&#xe9;" horiz-adv-x="1115" d="M500 -20Q351 -20 247 44T98 227T76 505Q98 660 174 784T371 981T645 1054Q800 1054 894 988T1025 803T1038 529L1026 450H353Q340 371 356 313T416 223T526 191Q598 191 656 223T748 328H1007Q974 218 894 140T710
21T500 -20ZM377 624H783Q792 686 778 738T723 820T614 850Q550 850 500 818T417 733T377 624ZM793 1446H1096L765 1155H552L793 1446Z" />
<glyph unicode="&#xea;" horiz-adv-x="1115" d="M500 -20Q351 -20 247 44T98 227T76 505Q98 660 174 784T371 981T645 1054Q800 1054 894 988T1025 803T1038 529L1026 450H353Q340 371 356 313T416 223T526 191Q598 191 656 223T748 328H1007Q974 218 894 140T710
21T500 -20ZM377 624H783Q792 686 778 738T723 820T614 850Q550 850 500 818T417 733T377 624ZM304 1155L571 1414H770L1014 1155H788L666 1295L518 1155H304Z" />
<glyph unicode="&#xeb;" horiz-adv-x="1115" d="M500 -20Q351 -20 247 44T98 227T76 505Q98 660 174 784T371 981T645 1054Q800 1054 894 988T1025 803T1038 529L1026 450H353Q340 371 356 313T416 223T526 191Q598 191 656 223T748 328H1007Q974 218 894 140T710
21T500 -20ZM377 624H783Q792 686 778 738T723 820T614 850Q550 850 500 818T417 733T377 624ZM747 1184L783 1422H1056L1021 1184H747ZM306 1184L342 1422H615L580 1184H306Z" />
<glyph unicode="&#xec;" horiz-adv-x="576" d="M66 0L220 1034H510L356 0H66ZM243 1446H-60L271 1155H484L243 1446Z" />
<glyph unicode="&#xed;" horiz-adv-x="639" d="M66 0L220 1034H510L356 0H66ZM518 1446H821L490 1155H277L518 1446Z" />
<glyph unicode="&#xee;" horiz-adv-x="576" d="M66 0L220 1034H510L356 0H66ZM286 1155L553 1414H752L996 1155H770L648 1295L500 1155H286Z" />
<glyph unicode="&#xef;" horiz-adv-x="576" d="M66 0L220 1034H510L356 0H66ZM728 1184L764 1422H1037L1002 1184H728ZM287 1184L323 1422H596L561 1184H287Z" />
<glyph unicode="&#xf0;" horiz-adv-x="1156" d="M514 -20Q361 -20 254 51T98 243T70 515Q94 684 175 798T372 970T609 1028Q688 1028 750 1005T857 943T930 851Q903 1003 845 1108T717 1285T583 1400T480 1474L815 1478Q948 1399 1019 1264T1105 944T1087 529Q1063
366 985 242T785 49T514 -20ZM510 197Q591 197 646 248T734 378T779 537Q790 619 782 687T737 797T624 839Q543 839 487 791T398 667T352 505Q342 433 351 362T397 244T510 197ZM400 1055L425 1243L1147 1472L1121 1285L400 1055Z" />
<glyph unicode="&#xf1;" horiz-adv-x="1172" d="M54 0L209 1034H491L472 901Q508 939 549 971T647 1023T784 1043Q876 1043 949 1000T1061 877T1082 689L980 0H691L788 654Q800 731 758 772T648 814Q603 814 558 798T481 749T443 669L343 0H54ZM412 1196L388 1337Q430
1376 477 1402T591 1429Q645 1429 692 1414T782 1384T870 1368Q920 1368 964 1390T1041 1438L1054 1275Q1020 1250 966 1227T845 1204Q791 1204 749 1218T665 1246T575 1261Q526 1261 491 1245T412 1196Z" />
<glyph unicode="&#xf2;" horiz-adv-x="1116" d="M479 -20Q332 -20 232 45T89 229T70 511Q93 674 171 796T369 986T637 1054Q787 1054 886 988T1027 799T1045 511Q1022 355 947 236T753 48T479 -20ZM515 197Q588 197 639 242T721 360T764 521Q776 603 768 676T721
794T605 839Q530 839 478 797T396 682T353 521Q342 440 350 366T397 244T515 197ZM498 1446H195L526 1155H739L498 1446Z" />
<glyph unicode="&#xf3;" horiz-adv-x="1116" d="M479 -20Q332 -20 232 45T89 229T70 511Q93 674 171 796T369 986T637 1054Q787 1054 886 988T1027 799T1045 511Q1022 355 947 236T753 48T479 -20ZM515 197Q588 197 639 242T721 360T764 521Q776 603 768 676T721
794T605 839Q530 839 478 797T396 682T353 521Q342 440 350 366T397 244T515 197ZM773 1446H1076L745 1155H532L773 1446Z" />
<glyph unicode="&#xf4;" horiz-adv-x="1116" d="M479 -20Q332 -20 232 45T89 229T70 511Q93 674 171 796T369 986T637 1054Q787 1054 886 988T1027 799T1045 511Q1022 355 947 236T753 48T479 -20ZM515 197Q588 197 639 242T721 360T764 521Q776 603 768 676T721
794T605 839Q530 839 478 797T396 682T353 521Q342 440 350 366T397 244T515 197ZM285 1155L552 1414H751L995 1155H769L647 1295L499 1155H285Z" />
<glyph unicode="&#xf5;" horiz-adv-x="1116" d="M479 -20Q332 -20 232 45T89 229T70 511Q93 674 171 796T369 986T637 1054Q787 1054 886 988T1027 799T1045 511Q1022 355 947 236T753 48T479 -20ZM515 197Q588 197 639 242T721 360T764 521Q776 603 768 676T721
794T605 839Q530 839 478 797T396 682T353 521Q342 440 350 366T397 244T515 197ZM360 1196L336 1337Q378 1376 425 1402T539 1429Q593 1429 640 1414T730 1384T818 1368Q868 1368 912 1390T989 1438L1002 1275Q968 1250 914 1227T793 1204Q739 1204 697 1218T613
1246T523 1261Q474 1261 439 1245T360 1196Z" />
<glyph unicode="&#xf6;" horiz-adv-x="1116" d="M479 -20Q332 -20 232 45T89 229T70 511Q93 674 171 796T369 986T637 1054Q787 1054 886 988T1027 799T1045 511Q1022 355 947 236T753 48T479 -20ZM515 197Q588 197 639 242T721 360T764 521Q776 603 768 676T721
794T605 839Q530 839 478 797T396 682T353 521Q342 440 350 366T397 244T515 197ZM727 1184L763 1422H1036L1001 1184H727ZM286 1184L322 1422H595L560 1184H286Z" />
<glyph unicode="&#xf7;" horiz-adv-x="1155" d="M131 621L163 834H1083L1051 621H131ZM378 187L422 480H721L678 187H378ZM497 975L540 1268H839L795 975H497Z" />
<glyph unicode="&#xf8;" horiz-adv-x="1129" d="M87 -15L-10 88L1003 1046L1098 944L87 -15ZM468 -20Q321 -20 221 45T78 229T58 511Q82 674 159 796T357 986T626 1054Q776 1054 875 988T1016 799T1034 511Q1010 355 935 236T741 48T468 -20ZM503 197Q577 197
628 242T710 360T753 521Q765 603 756 676T709 794T594 839Q519 839 467 797T385 682T342 521Q331 440 339 366T385 244T503 197Z" />
<glyph unicode="&#xf9;" horiz-adv-x="1163" d="M423 -20Q354 -20 289 2T174 67T100 173T86 319L186 1034H477L382 356Q372 284 410 238T536 192Q619 192 673 236T739 361L834 1034H1122L977 0H758L754 205Q723 114 667 66T547 -1T423 -20ZM529 1446H226L557 1155H770L529
1446Z" />
<glyph unicode="&#xfa;" horiz-adv-x="1163" d="M423 -20Q354 -20 289 2T174 67T100 173T86 319L186 1034H477L382 356Q372 284 410 238T536 192Q619 192 673 236T739 361L834 1034H1122L977 0H758L754 205Q723 114 667 66T547 -1T423 -20ZM804 1446H1107L776
1155H563L804 1446Z" />
<glyph unicode="&#xfb;" horiz-adv-x="1163" d="M423 -20Q354 -20 289 2T174 67T100 173T86 319L186 1034H477L382 356Q372 284 410 238T536 192Q619 192 673 236T739 361L834 1034H1122L977 0H758L754 205Q723 114 667 66T547 -1T423 -20ZM316 1155L583 1414H782L1026
1155H800L678 1295L530 1155H316Z" />
<glyph unicode="&#xfc;" horiz-adv-x="1163" d="M423 -20Q354 -20 289 2T174 67T100 173T86 319L186 1034H477L382 356Q372 284 410 238T536 192Q619 192 673 236T739 361L834 1034H1122L977 0H758L754 205Q723 114 667 66T547 -1T423 -20ZM758 1184L794 1422H1067L1032
1184H758ZM317 1184L353 1422H626L591 1184H317Z" />
<glyph unicode="&#xfd;" horiz-adv-x="1097" d="M152 -330Q49 -330 9 -313T-32 -295L-5 -109L95 -113Q182 -118 227 -100T290 -55T317 -14L344 43L99 1034H385L523 360L863 1034H1145L587 -6Q514 -138 444 -208T303 -304T152 -330ZM765 1446H1068L737 1155H524L765 1446Z" />
<glyph unicode="&#xfe;" horiz-adv-x="1186" d="M9 -322L271 1446H561L482 903Q519 940 564 974T669 1031T806 1054Q917 1054 996 997T1110 823T1117 525Q1090 338 1019 218T848 39T632 -20Q557 -20 499 4T393 79Q374 98 368 97T357 68L298 -322H9ZM553 165Q620
165 674 201T767 318T826 531Q844 657 828 730T768 836T662 868Q608 868 562 845T487 785T450 709L386 265Q416 221 456 193T553 165Z" />
<glyph unicode="&#xff;" horiz-adv-x="1097" d="M152 -330Q49 -330 9 -313T-32 -295L-5 -109L95 -113Q182 -118 227 -100T290 -55T317 -14L344 43L99 1034H385L523 360L863 1034H1145L587 -6Q514 -138 444 -208T303 -304T152 -330ZM719 1184L755 1422H1028L993
1184H719ZM278 1184L314 1422H587L552 1184H278Z" />
<glyph unicode="&#x2013;" horiz-adv-x="1163" d="M102 390L134 603L1055 604L1023 391L102 390Z" />
<glyph unicode="&#x2014;" horiz-adv-x="2298" d="M1950 604L1920 391L343 390L373 603L1950 604Z" />
<glyph unicode="&#x2018;" horiz-adv-x="528" d="M521 1468L366 1196L466 1186L423 906H130L167 1153L414 1468H521Z" />
<glyph unicode="&#x2019;" horiz-adv-x="526" d="M152 884L307 1156L207 1166L250 1446H543L506 1199L259 884H152Z" />
<glyph unicode="&#x201a;" horiz-adv-x="574" d="M-18 -277L142 -5L37 4L80 287H391L353 38L96 -277H-18Z" />
<glyph unicode="&#x201c;" horiz-adv-x="961" d="M957 1477L802 1203L902 1193L859 910H566L603 1159L850 1477H957ZM523 1477L368 1203L468 1193L425 910H132L169 1159L416 1477H523Z" />
<glyph unicode="&#x201d;" horiz-adv-x="956" d="M581 884L736 1156L636 1166L679 1446H972L935 1199L688 884H581ZM152 884L307 1156L207 1166L250 1446H543L506 1199L259 884H152Z" />
<glyph unicode="&#x201e;" horiz-adv-x="1017" d="M425 -277L585 -5L480 4L523 287H834L796 38L539 -277H425ZM-18 -277L142 -5L37 4L80 287H391L353 38L96 -277H-18Z" />
<glyph unicode="&#x2022;" horiz-adv-x="712" d="M376 484Q307 484 250 518T159 609T125 736Q125 805 159 861T250 952T376 986Q445 986 502 952T593 862T627 736Q627 667 593 610T502 518T376 484Z" />
<glyph unicode="&#x2039;" horiz-adv-x="611" d="M272 129L99 502L386 891H539L325 502L425 129H272Z" />
<glyph unicode="&#x203a;" horiz-adv-x="610" d="M57 129L268 502L170 891H323L493 502L208 129H57Z" />
</font>
</defs>
</svg>
